<svg id="Layer_1" data-name="Layer 1" xmlns="http://www.w3.org/2000/svg" viewBox="0 0 1263 1126"><defs><style>.cls-1{fill:#5c6bc0;}</style></defs><title>Artboard 44</title><path d="M582.86,874.88c5-5,5.23-7.88,10.68-12.15,12.92-10.14,14.71-16.61,8.1-32.25-15.46-36.55-40.95-64.32-75.63-83.31-36.26-19.86-75.76-28.43-116.7-30.54-19.88-1-40.31,0-59.28-5.59-37-10.9-73.2-24-102.39-51.17-27.12-25.2-45.06-55.46-53.57-91.5C177.22,497,215,433.17,285.71,414a3.6,3.6,0,0,0,1.13-.28c6.45-4.47,20.9,1.22,20.19-10.51-1.16-19.54-18.61-33.18-34.61-30.59a41.73,41.73,0,0,0-9.09,2.19C186.73,406,140.82,465.67,146.85,555.13c5.52,81.77,73,165.39,170.28,187,42.67,9.48,86,15.07,128.75,23.87,62.75,12.91,102.29,42.14,128,100.86C574.77,869,579.86,875.88,582.86,874.88Z"/><path class="cls-1" d="M659.93,280.52c-7.6,14,.7,25.91,6.65,36.9,25.75,47.55,66.71,75.49,118.18,89.93,36.44,10.23,74.24,8.42,111,14.29,81.73,13,160.9,61.17,175.79,162.58,8.49,57.8-27.48,113.78-85.35,133.38-8.79,3-17.81,5.27-26.72,7.88-3.86,5.78-1.58,11.56,0,17.35,9,18.49,21.28,24.63,39.88,17,65.34-26.88,108-72.24,115.59-145.35,5.73-55.44-12.06-103.14-46.37-146.08-42.79-53.55-101.79-74.12-166.35-84.73-38.76-6.38-78-10.76-115.5-23.41-39.38-13.27-69.12-38.17-90.06-73.88-1.18-2-7-9.23-8.29-11.12-6.25-9.48-8.25-11.48-16.26-5.48C671.42,269.77,663.1,276.74,659.93,280.52Z"/><path class="cls-1" d="M566.2,121.24C515,98,465,103.77,416.87,129.28c-76.55,40.59-115.66,124.06-100.31,209.17,7.3,40.49,22.29,78.42,36,116.86,13.08,36.62,26.25,73.16,26.56,113.05.29,37.17-12.55,69.13-34,98.42-2.52,3.44-6.87,7-5.2,10.91,1.79,4.16,7.61,2.91,11.76,3.38,24.24,2.7,42.29-6.94,51.78-29.21,17.93-42.06,25.91-85.47,14.75-131.07-6.21-25.41-17.07-49.08-25.85-73.53-6.06-19.9-15.48-38.5-22.49-58-4-11.11-5.89-22.82-10-33.89l.08-.06c-6.17-36.43-8.63-73.49,11.09-105.77,3-9,14.82-25.16,17-30.44,23.74-43.63,79.35-80.85,133.34-69.87,27.95,5.69,51.25,19.66,70.92,40.35,5.33,5.61,9,13.59,17.79,15.44,7.91-5.07,13.71-12.39,20.13-19,5.15-5.31,5.88-11.47,1.52-17.82l0,0c-2.71-6.61-7.72-11-13.85-14.27l-35.14-23.58C576.22,125.67,572.22,124.67,566.2,121.24Z"/><path d="M664.62,992.7c20.52,8.95,39.88,16.07,63.9,21.72,60.37,14.2,107.5,1.05,151.79-37,19.4-16.65,33.78-37.2,46.58-59.2a75.37,75.37,0,0,0,7.7-19.28c1.72-6.78,4.37-11.44,6-18.17,9.15-33.63,7.65-67.25,0-100.87-2.89-12-5.94-20.7-8.8-31.08-3.52-17.66-10.75-34.1-16.69-51-1-2.92-1.68-6-2.5-8.94-2.6-8.12-5.83-15-9-23.91-15.44-41.13-27.94-82.76-21.35-127.58,3-20.69,12-39.2,21.34-57.56,2.33-5.71,5.74-10.73,9.28-15.79,6.19-8.84,3-15.64-7.58-16.76a45.43,45.43,0,0,0-20.41,2.15c-9.61,3.07-15.61,10.95-19.61,18.87-17.27,34.23-30.85,69.71-27.16,109.22,3,32.45,13.19,63,25.44,93,11.76,28.76,25.81,56.8,32.6,87.27,9.36,42,7,83.34-11,123.09-7.56,13-12.1,25.33-19.28,37.38-25.5,42.8-75.56,77.65-129.55,65.3-31.63-7.24-55.8-26.28-76.31-50.22-6.17-7.2-9.37-7.17-14.92-.1-4.76,6.07-10.65,11.28-16.2,16.69-10.89,10.6,1.43,20.14,10.63,26.76C647.05,982.14,655.52,988.73,664.62,992.7Z"/><path d="M389.86,378.88c20.45,44.49,51.39,48.28,94.63,28.16,22.16-10.31,41.14-25.23,59.23-41.42,37.6-33.65,70-72.18,103.21-110,34-38.67,73.68-67.75,126-74.4,56.36-7.16,106.75,5.67,143.36,52.39C943.33,268.19,945.69,308,936,349.37c-4.08,17.35-4.25,17.31,12.17,22.37a71.94,71.94,0,0,1,7.76,2.57c10,4.37,14.88.05,18.34-9.4,25.58-69.73-.45-150.94-62-192.58C826.76,114.54,723,124.05,648.83,196c-28.69,27.83-52.28,59.9-77.44,90.67a393.45,393.45,0,0,1-42.53,45c-39.52,35.22-72.42,47.76-124,38.16C403,369.52,387.86,371.88,389.86,378.88Z"/><path class="cls-1" d="M317.57,762.79c-20.11-3.57-33.33,4.54-40,24.81-6.53,19.88-4.51,40.11-1.7,60.25,11.8,84.66,78.66,130.52,144.28,145.29,80.35,18.08,143.15-11.53,195.42-71,31.56-35.91,58.39-75.79,92.21-109.77,25.82-25.94,55.55-45.3,92.13-52.07,21.74-4,43.52-1.8,65.17,1.74,2.64.44-3-17.64-5.76-28.16-2-7.43-7.74-10.21-15-10.67-66.93-4.15-123.25,16.49-166.86,69.24-25.56,30.91-47.68,64.52-74.66,94.26-17.66,19.46-36.89,37.52-61,48.39-59.72,26.93-120.09,32.45-178.73-17C329,889.35,317,850.7,320.75,806.82c.5-5.82,1.14-11.63,1.71-17.45C322.64,780.18,329.31,769.79,317.57,762.79Z"/><path class="cls-1" d="M1013.08,602.06c9.34,0,18.71-.39,28,.13,9.92.55,10.34-4.78,7.84-11.73-2.87-8-9.79-11.65-17.17-14.58-12.78-5.07-26.26-7.49-39.76-8.61-29.87-2.47-59.86-3.07-89.85-3-3,0-6.84-.94-7.69,3.25s-.88,8.54,2.07,12.25c5.59,7,13.28,10.42,21.58,13.08,23.32,7.48,47.62,6.71,71.58,8.67,7.74.63,15.58.11,23.37.12Z"/><path d="M856.6,215.05c-10.81,1.41-18.54,7.93-25.62,15.31-21.81,22.76-36.53,50.38-52.63,77.06-4,6.67-7.48,13.73-11.93,20.11-4.18,6-2.62,9.13,3,13,12.51,8.52,12.38,8.89,21.3-4q37-53.31,73.74-106.78c2-2.89,6.46-5.8,3.58-10.12C865.52,215.83,860.85,215.53,856.6,215.05Z"/><path d="M254.62,530.9c-12.07,0-24.15.16-36.21-.12-5.09-.11-7.33.51-7.26,6.81.17,16.76-.31,17,16.95,18.5,43.4,3.73,86.84,6.92,130.2,11,9.27.87,9.12-3.77,7.83-9.47-1.76-7.8-7.45-12.22-14.77-15.2-22.09-9-45.46-9.78-68.72-11.12-9.31-.53-18.68-.1-28-.11Z"/><path d="M823.56,935.87c7.35-10.25,1.76-18.47-2.41-27.21C812,889.41,799,871.94,792.9,851.21,788.79,837.34,783.55,824,776,811.7c-5-8.19-11.71-15.1-22.71-12.74-8.18,1.76-12.08,5.88-7.64,15.08,14.51,30.14,28.51,60.53,42.77,90.79,3.62,7.67,5.93,16,11.33,22.8.3.24.71.41.9.72,3,4.75,3.67,11.22,9.46,14C816.46,945.39,818.56,937.87,823.56,935.87Z"/><path class="cls-1" d="M472.5,789.28q-38.13,54.91-76.2,109.88c-2.2,3.18-7.54,6.18-3.46,10.81,3.19,3.63,8,4.18,13,2.91,11.37-2.92,20.36-9.85,28.29-17.8C454.8,874.31,472,851,481.81,823c5.85-13.41,5.81-16.66,4.86-25.41C485.88,790.32,480.78,785,472.5,789.28Z"/><path class="cls-1" d="M477.08,299.59c5,9,9.71,21.29,17.79,28.48,3.68,3.28,7.91,5.83,12.65,3.11,5.06-2.9,5.28-8.15,4.5-13.4-2.48-16.71-8.64-32.25-16-47.24-12.13-24.83-37.89-73-41.57-79.44-7.31-5.54-23.32,2.45-19.33,14.45,0,0,6,14,9.15,23.77,4.83,12.24,7.82,22.22,13.58,32.56C467,274,472,285.58,477.08,299.59Z"/><path d="M729.83,294.47c7.25-.83,13-4.51,18.3-9.38C762.72,271.66,772,254.47,782,237.75c5.17-8.7,9.91-17.66,14.78-26.54,5.52-10.08,3-14.53-8.63-15.22-10-.59-16.91,5-23.33,11.44C747,225.37,736.07,248,723.24,269.31a40.4,40.4,0,0,0-3.87,7.2c-1.34,3.77-7.16,6.47-3.9,11.21S724,294.32,729.83,294.47Z"/><path class="cls-1" d="M514.53,843.23c-23.93,23.18-36.34,53.91-53.54,81.51-2.91,4.66-.09,6.36,2.6,8.4,7.39,5.63,17.68,3.66,27.54-4.79,16.92-14.5,27.16-33.83,38.25-52.56,3.36-5.67,6.83-11.26,10.25-16.89,4-8.26,8-14.25,4.51-17.4-6.7-6-13.53-6.79-21.25-4.4A18.43,18.43,0,0,0,514.53,843.23Z"/><path class="cls-1" d="M946.42,635.16c-8.18,0-16.37-.25-24.54.07-4.24.17-10.18-2.08-11.49,4.67-1.17,6,0,11.75,5.29,15.71,9,6.73,19.52,9.94,30.28,11.4,25.14,3.41,50.52,2.42,75.82,2.75,6.42.08,8.19-3,7.32-8.78-1.58-10.61-8.42-16.09-18-19.2C990,634.94,968.23,634.9,946.42,635.16Z"/><path d="M701.72,890c8.21,24.41,23.25,45.27,35.33,67.66,3.15,5.85,13.27,2.11,16.81-6.23,4.93-11.61,2-23.17-2.37-33.94-9.42-23-21.68-44.52-35.46-65.18-5.4-3.9-10.76-3.9-15.76.58-4.53,4.05-8.21,2-6.65,12.83C694.75,873.62,698.14,883,701.72,890Z"/><path d="M308.73,634.5c8.53-.09,17.1.5,25.43-2.34,5.43-1.85,9.69-4.92,12.34-10,4.56-8.76,2.13-13.39-7.7-14.25-33.29-2.91-66.59-5.79-99.91-8.39-3.5-.27-10.26-2.9-9.43,4.35.77,6.75-5.9,17.83,5.57,19.64C259.55,627.37,283.56,635,308.73,634.5Z"/><path d="M848.72,371c3.16.37,3.9-2.29,5.15-4.09,20.49-29.42,40.88-58.92,61.42-88.3,2.79-4,2.54-6.11-1.78-9.06-14-9.56-14.06-9.66-25,3.33-16.27,19.4-33.63,38-45.49,60.66-4.08,7.81-6.34,15.89-5.18,24.76C838.76,364.9,843.54,368.12,848.72,371Z"/><path d="M265.37,462.63c-5.19,0-14.92.11-24.65-.06-5-.09-10.28-.26-8.74,6.85,1.41,6.47-5.9,17.28,7.3,18.44,34.09,3,68.25,5.16,102.35,8.15,10.23.9,10.11-5,8.46-11.41-2.16-8.33-9.19-12.11-16.75-14.82C312.76,462.39,291.3,462.93,265.37,462.63Z"/><path class="cls-1" d="M949,498.5c-7.39,0-14.82.45-22.17-.14-9.21-.74-14.39.81-14.35,12.14,0,10.08,2.14,13.8,13.1,14.33,31,1.49,62,4.67,93,6.82,4.21.29,10.39,3.16,12.58-2.4,2.45-6.25-.57-12.21-5.56-16.67-8.53-7.6-19.3-9.87-30-11.39A271.09,271.09,0,0,0,949,498.5Z"/><path d="M809.83,787c-1.24,9.78,5.63,16.59,9.27,24.49,11.83,25.64,24.24,51,36.17,76.6,2.23,4.78,4.64,8,10.39,6.48,10.46-6.52,14.79-15.09,11.2-27.55-3.79-13.14-7.37-26.66-16.28-37.72L833,782.24c-3.54-5.87-8.72-3.81-12.83-1.7C816.66,782.37,812.63,783.83,809.83,787Z"/><path class="cls-1" d="M561.42,282.45c9.41-14.1,2.92-27.64-2.11-40.79-8.16-21.32-20.3-40.65-32.09-60.1-4-5.93-7.52-7.15-13.49-5.87-9,1.93-11.84,8.07-8.52,18.51,7.25,20,17.85,38.52,26.43,57.94.93,2.11,1.52,4.37,2.26,6.57,4.2,8.93,7.49,17.6,11.65,26.17C549,291.86,554.44,290.79,561.42,282.45Z"/><path class="cls-1" d="M420.71,768.53a15.79,15.79,0,0,0-9.59-.3c-15.43,4.29-21.14,20.44-32.37,29.94-12.34,16.08-21.53,34.12-31.8,51.48-1.93,3.26-6.69,7-2.43,11.33a14.76,14.76,0,0,0,14,4.09,36.7,36.7,0,0,0,19-10.85,232.58,232.58,0,0,0,38.57-57.83,51,51,0,0,0,6.28-13.52C424,777.84,424.29,773,420.71,768.53Z"/><path class="cls-1" d="M420.94,335.25c1.5,3.14,3.44,6.12,4.55,9.38,3,8.68,7,8.89,15.29,5.1,10.92-5,10.23-10.27,5.62-19.29-7.56-14.79-13.9-30.19-20.75-45.33-2.18-7.31-17.35-40.76-31.52-43.59-1.22.39-6.74,1.17-7.38,2.26-2.31,5.6-1.81,11.35-1.06,17.11C386,262.86,410,312.25,420.94,335.25Z"/></svg>