<svg id="Layer_1" data-name="Layer 1" xmlns="http://www.w3.org/2000/svg" viewBox="0 0 2225.08 476"><defs><style>.cls-1{font-size:300px;font-family:Prime-Regular, Prime;}.cls-2,.cls-3,.cls-4{fill:#5c6bc0;}.cls-3{letter-spacing:0.02em;}.cls-4{letter-spacing:0em;}</style></defs><title>Artboard 43</title><text class="cls-1" transform="translate(391.97 376.63)">FLOW<tspan class="cls-2" x="839.39" y="0">CRA</tspan><tspan class="cls-3" x="1439.99" y="0">F</tspan><tspan class="cls-4" x="1624.78" y="0">T</tspan></text><path d="M221,357.06c1.49-1.5,1.56-2.35,3.18-3.63,3.86-3,4.39-5,2.42-9.62A49.83,49.83,0,0,0,204.08,319c-10.82-5.92-22.6-8.48-34.82-9.11-5.93-.3-12,0-17.69-1.67-11-3.25-21.84-7.17-30.54-15.26a53.1,53.1,0,0,1-16-27.3c-5-21.3,6.25-40.34,27.34-46.07a1.13,1.13,0,0,0,.34-.08c1.93-1.34,6.23.36,6-3.14-.35-5.83-5.56-9.9-10.33-9.12a11.78,11.78,0,0,0-2.71.65C102.85,217.15,89.15,235,91,261.66c1.64,24.39,21.76,49.34,50.8,55.8,12.73,2.82,25.65,4.49,38.41,7.12,18.72,3.85,30.52,12.57,38.19,30.09C218.63,355.29,220.15,357.35,221,357.06Z"/><path class="cls-2" d="M244,179.73c-2.26,4.18.21,7.73,2,11,7.68,14.19,19.9,22.53,35.26,26.84,10.87,3.05,22.15,2.51,33.12,4.26,24.39,3.89,48,18.25,52.45,48.51,2.53,17.24-8.2,33.94-25.47,39.79-2.62.89-5.31,1.57-8,2.35-1.15,1.73-.47,3.45,0,5.18,2.68,5.51,6.35,7.35,11.9,5.06,19.49-8,32.23-21.55,34.48-43.36,1.71-16.55-3.59-30.78-13.83-43.59-12.77-16-30.37-22.11-49.63-25.28-11.57-1.9-23.26-3.21-34.46-7a48.09,48.09,0,0,1-26.87-22c-.35-.59-2.1-2.75-2.48-3.31-1.86-2.83-2.46-3.43-4.84-1.64A21.75,21.75,0,0,0,244,179.73Z"/><path class="cls-2" d="M216.07,132.2c-15.27-6.94-30.2-5.21-44.56,2.4-22.83,12.11-34.5,37-29.92,62.41,2.17,12.08,6.65,23.39,10.75,34.86,3.9,10.93,7.83,21.83,7.92,33.74.09,11.08-3.75,20.62-10.14,29.36-.75,1-2.05,2.09-1.55,3.25s2.27.87,3.51,1c7.23.81,12.62-2.07,15.45-8.71,5.35-12.55,7.73-25.5,4.4-39.11-1.86-7.58-5.09-14.64-7.71-21.94-1.81-5.93-4.62-11.48-6.71-17.31-1.19-3.32-1.76-6.81-3-10.12h0c-1.84-10.87-2.58-21.93,3.31-31.56.89-2.68,4.42-7.51,5.07-9.08,7.09-13,23.68-24.12,39.79-20.85a39.65,39.65,0,0,1,21.16,12c1.59,1.67,2.69,4.06,5.3,4.61,2.36-1.51,4.1-3.7,6-5.68a3.85,3.85,0,0,0,.45-5.31h0a8.52,8.52,0,0,0-4.13-4.26l-10.49-7A44.88,44.88,0,0,0,216.07,132.2Z"/><path d="M245.43,392.21a107.27,107.27,0,0,0,19.07,6.48c18,4.23,32.07.31,45.29-11,5.78-5,10.07-11.09,13.89-17.66a22.57,22.57,0,0,0,2.3-5.75c.51-2,1.3-3.41,1.8-5.42,2.73-10,2.28-20.07,0-30.1-.86-3.56-1.77-6.17-2.62-9.27-1-5.27-3.21-10.17-5-15.2-.3-.87-.49-1.78-.74-2.67-.78-2.42-1.74-4.48-2.68-7.13-4.61-12.28-8.34-24.7-6.37-38.07.91-6.17,3.58-11.69,6.37-17.17a23.76,23.76,0,0,1,2.77-4.71c1.84-2.64.89-4.67-2.27-5a13.52,13.52,0,0,0-6.08.64c-2.87.92-4.66,3.27-5.85,5.63-5.16,10.21-9.21,20.8-8.11,32.58.9,9.69,3.94,18.8,7.59,27.74,3.51,8.58,7.7,17,9.73,26,2.79,12.53,2.07,24.86-3.29,36.72-2.25,3.88-3.61,7.56-5.75,11.16-7.61,12.77-22.54,23.17-38.65,19.48-9.44-2.16-16.65-7.84-22.77-15-1.84-2.15-2.8-2.14-4.45,0a52.84,52.84,0,0,1-4.84,5c-3.24,3.16.43,6,3.18,8A42.75,42.75,0,0,0,245.43,392.21Z"/><path d="M163.46,209.07c6.1,13.28,15.33,14.41,28.23,8.4,6.61-3.07,12.27-7.52,17.67-12.35,11.22-10,20.9-21.54,30.79-32.81,10.14-11.54,22-20.21,37.59-22.2,16.81-2.14,31.84,1.69,42.77,15.63,8.08,10.31,8.78,22.2,5.88,34.53-1.21,5.17-1.26,5.16,3.63,6.67a20.34,20.34,0,0,1,2.32.77c3,1.3,4.44,0,5.47-2.8a49.57,49.57,0,0,0-18.5-57.46c-25.5-17.25-56.46-14.41-78.59,7.07-8.56,8.3-15.59,17.87-23.1,27A117.58,117.58,0,0,1,204.93,195c-11.79,10.51-21.61,14.25-37,11.39C167.36,206.28,162.86,207,163.46,209.07Z"/><path class="cls-2" d="M141.89,323.61c-6-1.06-9.94,1.36-11.93,7.41s-1.35,12-.51,18c3.52,25.26,23.47,38.94,43.05,43.35,24,5.39,42.71-3.44,58.3-21.19,9.42-10.71,17.42-22.61,27.51-32.75,7.71-7.74,16.58-13.51,27.49-15.53,6.49-1.2,13-.54,19.44.52.79.13-.88-5.27-1.71-8.4-.59-2.22-2.31-3.05-4.49-3.19-20-1.24-36.77,4.92-49.78,20.66-7.63,9.22-14.23,19.25-22.28,28.12-5.27,5.81-11,11.2-18.2,14.44-17.81,8-35.82,9.68-53.32-5.08-10.15-8.57-13.75-20.1-12.62-33.19.15-1.74.34-3.47.51-5.21C143.4,328.8,145.39,325.7,141.89,323.61Z"/><path class="cls-2" d="M349.4,275.66c2.79,0,5.58-.12,8.36,0,3,.16,3.09-1.43,2.34-3.5-.86-2.38-2.92-3.48-5.12-4.35a41,41,0,0,0-11.86-2.57c-8.92-.74-17.87-.92-26.81-.89-.89,0-2-.28-2.3,1a4.22,4.22,0,0,0,.62,3.65c1.67,2.1,4,3.11,6.44,3.91,7,2.23,14.21,2,21.36,2.58,2.31.19,4.64,0,7,0Z"/><path d="M302.71,160.19c-3.22.42-5.53,2.37-7.64,4.57-6.51,6.79-10.9,15-15.7,23-1.21,2-2.24,4.1-3.56,6s-.78,2.73.9,3.88c3.73,2.54,3.7,2.65,6.36-1.19q11-15.9,22-31.85c.59-.87,1.93-1.73,1.07-3C305.37,160.43,304,160.33,302.71,160.19Z"/><path d="M123.11,254.43c-3.6,0-7.21,0-10.81,0-1.52,0-2.18.16-2.16,2,0,5-.09,5.07,5.06,5.51,12.94,1.12,25.91,2.07,38.84,3.29,2.77.26,2.72-1.12,2.34-2.82-.53-2.33-2.22-3.65-4.41-4.54-6.59-2.68-13.56-2.92-20.5-3.32-2.78-.16-5.58,0-8.36,0Z"/><path d="M292.85,375.25c2.2-3.06.53-5.51-.72-8.11-2.74-5.75-6.59-11-8.42-17.15a48.59,48.59,0,0,0-5-11.78c-1.5-2.45-3.49-4.51-6.77-3.8-2.45.52-3.61,1.75-2.29,4.5,4.34,9,8.51,18,12.77,27.08,1.08,2.29,1.77,4.78,3.38,6.81a1.15,1.15,0,0,1,.27.21c.9,1.42,1.09,3.35,2.82,4.17C290.74,378.09,291.36,375.85,292.85,375.25Z"/><path class="cls-2" d="M188.11,331.52q-11.37,16.38-22.73,32.78c-.66.95-2.25,1.85-1,3.22a3.69,3.69,0,0,0,3.88.87,18.62,18.62,0,0,0,8.44-5.31c6.17-6.19,11.29-13.14,14.23-21.5,1.75-4,1.74-5,1.45-7.58C192.11,331.83,190.58,330.24,188.11,331.52Z"/><path class="cls-2" d="M189.48,185.41c1.49,2.69,2.9,6.36,5.31,8.5,1.1,1,2.36,1.74,3.77.93s1.58-2.43,1.34-4a48.55,48.55,0,0,0-4.76-14.09c-3.62-7.41-11.3-21.77-12.4-23.7-2.18-1.66-7,.73-5.77,4.31,0,0,1.79,4.18,2.73,7.09,1.44,3.65,2.33,6.63,4.05,9.71A40,40,0,0,1,189.48,185.41Z"/><path d="M264.89,183.89a9.67,9.67,0,0,0,5.46-2.8c4.35-4,7.13-9.14,10.1-14.12,1.54-2.6,3-5.27,4.41-7.92,1.64-3,.88-4.34-2.58-4.54-3-.18-5,1.48-7,3.41-5.32,5.35-8.57,12.1-12.4,18.46a11.73,11.73,0,0,0-1.15,2.15c-.4,1.12-2.14,1.93-1.16,3.34A5.06,5.06,0,0,0,264.89,183.89Z"/><path class="cls-2" d="M200.65,347.61c-7.14,6.92-10.84,16.09-16,24.32-.87,1.39,0,1.9.77,2.51,2.21,1.68,5.28,1.09,8.22-1.43,5.05-4.33,8.11-10.09,11.41-15.68,1-1.69,2-3.36,3.06-5,1.2-2.47,2.39-4.25,1.35-5.19a6,6,0,0,0-6.34-1.32A5.58,5.58,0,0,0,200.65,347.61Z"/><path class="cls-2" d="M329.51,285.53c-2.44,0-4.88-.07-7.32,0-1.27.05-3-.63-3.43,1.39a4.42,4.42,0,0,0,1.58,4.69,19.11,19.11,0,0,0,9,3.4c7.5,1,15.08.72,22.62.82,1.92,0,2.45-.89,2.19-2.62-.47-3.17-2.51-4.8-5.37-5.73C342.52,285.47,336,285.46,329.51,285.53Z"/><path d="M256.5,361.58c2.45,7.28,6.94,13.51,10.54,20.19.94,1.74,4,.62,5-1.86,1.47-3.47.61-6.91-.71-10.13a111.67,111.67,0,0,0-10.58-19.45,3.42,3.42,0,0,0-4.7.18c-1.35,1.2-2.45.6-2,3.83A25.84,25.84,0,0,0,256.5,361.58Z"/><path d="M139.25,285.34c2.55,0,5.1.15,7.59-.7a6.11,6.11,0,0,0,3.68-3c1.36-2.61.64-4-2.3-4.25-9.93-.87-19.86-1.73-29.81-2.5-1-.08-3.06-.87-2.81,1.29s-1.76,5.33,1.66,5.87C124.58,283.21,131.74,285.48,139.25,285.34Z"/><path d="M300.36,206.71c.94.11,1.16-.69,1.54-1.22,6.11-8.78,12.19-17.58,18.32-26.35.84-1.19.76-1.82-.53-2.7-4.16-2.86-4.19-2.88-7.44,1-4.86,5.79-10,11.33-13.58,18.1a12.23,12.23,0,0,0-1.54,7.39C297.39,204.9,298.82,205.86,300.36,206.71Z"/><path d="M126.32,234.06c-1.55,0-4.46,0-7.36,0-1.49,0-3.07-.08-2.61,2,.42,1.94-1.76,5.16,2.18,5.51,10.17.89,20.36,1.54,30.54,2.43,3.05.27,3-1.5,2.52-3.41-.64-2.48-2.74-3.61-5-4.42C140.45,234,134.05,234.15,126.32,234.06Z"/><path class="cls-2" d="M330.29,244.76c-2.21,0-4.42.14-6.62,0-2.74-.22-4.29.24-4.28,3.62,0,3,.64,4.12,3.91,4.28,9.26.44,18.49,1.39,27.75,2,1.25.09,3.09.94,3.75-.72.73-1.86-.17-3.64-1.66-5-2.54-2.27-5.76-2.94-9-3.4A81.49,81.49,0,0,0,330.29,244.76Z"/><path d="M288.76,330.84c-.37,2.92,1.68,5,2.76,7.31,3.53,7.65,7.24,15.22,10.8,22.85.66,1.43,1.38,2.38,3.09,1.94,3.13-1.95,4.42-4.51,3.35-8.22-1.14-3.92-2.2-8-4.86-11.26l-8.22-14c-1.05-1.76-2.6-1.14-3.83-.51A9.62,9.62,0,0,0,288.76,330.84Z"/><path class="cls-2" d="M214.64,180.3c2.81-4.2.87-8.25-.63-12.17-2.43-6.36-6-12.13-9.57-17.93-1.21-1.77-2.24-2.13-4-1.75-2.68.57-3.54,2.41-2.55,5.52,2.17,6,5.33,11.49,7.89,17.29.28.63.45,1.3.67,2,1.26,2.66,2.24,5.25,3.48,7.81C210.92,183.11,212.56,182.79,214.64,180.3Z"/><path class="cls-2" d="M172.66,325.33a4.66,4.66,0,0,0-2.86-.09c-4.6,1.28-6.31,6.09-9.66,8.93-3.68,4.8-6.42,10.18-9.49,15.36-.57,1-2,2.08-.72,3.38a4.39,4.39,0,0,0,4.18,1.22,10.92,10.92,0,0,0,5.67-3.24,69.49,69.49,0,0,0,11.51-17.25,15.48,15.48,0,0,0,1.87-4A4.28,4.28,0,0,0,172.66,325.33Z"/><path class="cls-2" d="M172.73,196.06a25.63,25.63,0,0,1,1.36,2.79c.88,2.59,2.09,2.66,4.56,1.53,3.26-1.49,3-3.07,1.67-5.76-2.25-4.41-4.14-9-6.19-13.52-.64-2.19-5.17-12.17-9.4-13-.36.12-2,.35-2.2.68a9.72,9.72,0,0,0-.32,5.1C162.31,174.46,169.45,189.19,172.73,196.06Z"/></svg>