<svg id="Layer_1" data-name="Layer 1" xmlns="http://www.w3.org/2000/svg" viewBox="0 0 1847.89 336.2"><defs><style>.cls-1,.cls-2,.cls-3,.cls-4{isolation:isolate;}.cls-2,.cls-3,.cls-4{font-size:300px;font-family:Prime-Regular, Prime;}.cls-2,.cls-5{fill:#fff;}.cls-3,.cls-4,.cls-6{fill:#5c6bc0;}.cls-4{letter-spacing:0.02em;}</style></defs><title>Artboard 42_whiteindigo</title><g class="cls-1"><text class="cls-2" transform="translate(605 262.5)">W</text><text class="cls-3" transform="translate(888.5 262.5)">CRA</text><text class="cls-4" transform="translate(1489.09 262.5)">F</text><text class="cls-3" transform="translate(1673.89 262.5)">T</text></g><text class="cls-2" transform="translate(0 263)">FL</text><path class="cls-5" d="M565.15,350.39c1.49-1.5,1.56-2.36,3.19-3.63,3.85-3,4.39-5,2.41-9.63a49.82,49.82,0,0,0-22.58-24.88c-10.83-5.93-22.62-8.49-34.84-9.12-5.94-.3-12,0-17.71-1.67-11-3.25-21.85-7.18-30.57-15.28a53.09,53.09,0,0,1-16-27.32c-5-21.31,6.26-40.37,27.37-46.1a.46.46,0,0,0,.34-.09c1.92-1.33,6.23.37,6-3.14-.35-5.83-5.56-9.9-10.34-9.13a13.37,13.37,0,0,0-2.71.65c-22.88,9.32-36.59,27.15-34.78,53.86,1.64,24.41,21.78,49.38,50.84,55.84,12.74,2.83,25.68,4.5,38.45,7.13,18.73,3.85,30.54,12.58,38.21,30.12C562.73,348.62,564.25,350.68,565.15,350.39Z" transform="translate(-118.97 -117.77)"/><path class="cls-6" d="M588.16,172.91c-2.27,4.19.21,7.73,2,11,7.69,14.2,19.92,22.54,35.29,26.85,10.88,3.05,22.16,2.52,33.15,4.27,24.4,3.89,48,18.26,52.49,48.54,2.53,17.26-8.21,34-25.49,39.83-2.62.89-5.31,1.58-8,2.36-1.15,1.72-.47,3.45,0,5.18,2.68,5.52,6.36,7.35,11.91,5.06,19.51-8,32.26-21.57,34.51-43.4,1.72-16.55-3.59-30.8-13.84-43.62-12.78-16-30.4-22.13-49.67-25.3-11.58-1.9-23.29-3.21-34.49-7a48.12,48.12,0,0,1-26.9-22.06c-.35-.6-2.1-2.76-2.47-3.32-1.87-2.83-2.46-3.43-4.85-1.64A21.6,21.6,0,0,0,588.16,172.91Z" transform="translate(-118.97 -117.77)"/><path class="cls-6" d="M560.17,125.35c-15.28-6.95-30.22-5.22-44.59,2.4-22.85,12.12-34.53,37-30,62.46,2.18,12.09,6.66,23.41,10.76,34.89,3.9,10.94,7.83,21.85,7.93,33.76.08,11.1-3.75,20.64-10.15,29.39-.75,1-2.05,2.09-1.55,3.25s2.27.87,3.51,1c7.24.81,12.63-2.07,15.46-8.72,5.35-12.56,7.74-25.52,4.41-39.14-1.86-7.58-5.1-14.65-7.72-22-1.81-5.95-4.63-11.5-6.72-17.33-1.19-3.32-1.76-6.82-3-10.12h0c-1.84-10.88-2.58-21.95,3.31-31.58.9-2.69,4.43-7.52,5.08-9.09,7.09-13,23.7-24.15,39.82-20.87A39.7,39.7,0,0,1,568,145.74c1.59,1.68,2.7,4.06,5.31,4.61,2.36-1.51,4.09-3.7,6-5.68a3.86,3.86,0,0,0,.45-5.32h0a8.52,8.52,0,0,0-4.13-4.26l-10.5-7A44.3,44.3,0,0,0,560.17,125.35Z" transform="translate(-118.97 -117.77)"/><path class="cls-5" d="M589.56,385.57a106.18,106.18,0,0,0,19.08,6.48c18,4.24,32.1.32,45.33-11,5.79-5,10.08-11.11,13.91-17.68a22.9,22.9,0,0,0,2.3-5.75c.51-2,1.3-3.42,1.8-5.43,2.73-10,2.28-20.08,0-30.12-.87-3.57-1.78-6.18-2.63-9.28-1.05-5.27-3.21-10.18-5-15.22-.31-.87-.5-1.78-.75-2.67-.78-2.42-1.74-4.48-2.68-7.14-4.61-12.28-8.35-24.71-6.38-38.09.91-6.18,3.58-11.71,6.37-17.19a24.51,24.51,0,0,1,2.78-4.71c1.84-2.64.89-4.67-2.27-5a13.68,13.68,0,0,0-6.09.64c-2.87.92-4.66,3.27-5.86,5.64-5.16,10.22-9.21,20.81-8.11,32.61.9,9.69,3.94,18.81,7.6,27.76,3.51,8.59,7.7,17,9.73,26.06,2.8,12.54,2.08,24.89-3.29,36.76-2.25,3.88-3.61,7.56-5.75,11.16C642,376.13,627.1,386.54,611,382.85c-9.44-2.16-16.66-7.85-22.78-15-1.84-2.15-2.8-2.14-4.46,0a53.13,53.13,0,0,1-4.84,5c-3.25,3.17.43,6,3.18,8A42.66,42.66,0,0,0,589.56,385.57Z" transform="translate(-118.97 -117.77)"/><path class="cls-5" d="M507.52,202.28c6.1,13.28,15.34,14.42,28.25,8.41,6.62-3.08,12.29-7.54,17.69-12.37,11.23-10,20.91-21.55,30.82-32.83,10.14-11.55,22-20.23,37.61-22.22,16.83-2.14,31.88,1.69,42.81,15.64,8.08,10.32,8.79,22.22,5.89,34.56-1.22,5.18-1.27,5.16,3.63,6.68a21,21,0,0,1,2.32.76c3,1.31,4.44,0,5.48-2.8A49.64,49.64,0,0,0,663.5,140.6c-25.5-17.25-56.5-14.41-78.65,7.08-8.57,8.31-15.61,17.88-23.13,27.07A117.2,117.2,0,0,1,549,188.2c-11.8,10.51-21.62,14.26-37,11.39C511.43,199.48,506.92,200.19,507.52,202.28Z" transform="translate(-118.97 -117.77)"/><path class="cls-6" d="M485.93,316.92c-6-1.07-9.95,1.35-11.94,7.4s-1.35,12-.51,18c3.52,25.28,23.49,39,43.09,43.39,24,5.4,42.74-3.44,58.35-21.2,9.42-10.73,17.43-22.64,27.53-32.78C610.16,324,619,318.19,630,316.17c6.5-1.2,13-.54,19.46.52.79.13-.89-5.27-1.72-8.41-.58-2.22-2.31-3-4.49-3.18-20-1.24-36.8,4.92-49.82,20.67C585.76,335,579.15,345,571.1,353.91c-5.28,5.82-11,11.21-18.22,14.45-17.83,8.05-35.86,9.7-53.37-5.08-10.16-8.57-13.75-20.11-12.63-33.22.15-1.74.34-3.47.51-5.21C487.44,322.11,489.44,319,485.93,316.92Z" transform="translate(-118.97 -117.77)"/><path class="cls-6" d="M693.61,268.92c2.79,0,5.59-.11,8.37,0,3,.17,3.09-1.43,2.34-3.5-.85-2.38-2.92-3.48-5.12-4.36a41.66,41.66,0,0,0-11.87-2.57c-8.93-.74-17.88-.91-26.83-.89-.89,0-2-.28-2.3,1a4.22,4.22,0,0,0,.62,3.66c1.67,2.1,4,3.11,6.44,3.91,7,2.23,14.22,2,21.38,2.59,2.31.19,4.65,0,7,0Z" transform="translate(-118.97 -117.77)"/><path class="cls-5" d="M646.89,153.36c-3.23.42-5.54,2.37-7.65,4.57-6.52,6.8-10.91,15-15.72,23-1.2,2-2.23,4.1-3.56,6s-.78,2.72.91,3.87c3.73,2.55,3.69,2.66,6.36-1.18q11-15.92,22-31.88c.59-.87,1.93-1.74,1.06-3S648.16,153.5,646.89,153.36Z" transform="translate(-118.97 -117.77)"/><path class="cls-5" d="M467.13,247.67c-3.6,0-7.21.05-10.81,0-1.52,0-2.19.15-2.17,2,.06,5-.09,5.08,5.07,5.52,12.95,1.12,25.93,2.07,38.87,3.29,2.77.27,2.73-1.12,2.34-2.82-.53-2.33-2.22-3.65-4.41-4.54-6.59-2.68-13.57-2.92-20.52-3.32-2.78-.16-5.58,0-8.37,0Z" transform="translate(-118.97 -117.77)"/><path class="cls-5" d="M637,368.6c2.2-3.06.53-5.52-.72-8.13-2.74-5.75-6.6-11-8.43-17.15a49.26,49.26,0,0,0-5-11.8c-1.51-2.45-3.5-4.51-6.78-3.8-2.45.52-3.61,1.75-2.29,4.5,4.34,9,8.52,18.07,12.78,27.11,1.08,2.29,1.77,4.78,3.38,6.81a1.39,1.39,0,0,1,.27.21c.91,1.42,1.09,3.35,2.82,4.18S635.53,369.19,637,368.6Z" transform="translate(-118.97 -117.77)"/><path class="cls-6" d="M532.19,324.83q-11.38,16.4-22.75,32.81c-.66.94-2.25,1.84-1,3.22a3.68,3.68,0,0,0,3.87.87,18.67,18.67,0,0,0,8.45-5.31c6.18-6.2,11.3-13.16,14.24-21.52,1.75-4,1.74-5,1.46-7.59C536.19,325.14,534.67,323.54,532.19,324.83Z" transform="translate(-118.97 -117.77)"/><path class="cls-6" d="M533.56,178.6c1.49,2.69,2.9,6.36,5.31,8.51,1.1,1,2.37,1.74,3.78.93s1.58-2.44,1.35-4a48.84,48.84,0,0,0-4.77-14.1c-3.63-7.41-11.32-21.79-12.42-23.72-2.18-1.66-7,.73-5.77,4.31,0,0,1.79,4.19,2.73,7.1,1.44,3.66,2.34,6.64,4.06,9.72A40,40,0,0,1,533.56,178.6Z" transform="translate(-118.97 -117.77)"/><path class="cls-5" d="M609,177.07a9.51,9.51,0,0,0,5.47-2.8c4.35-4,7.14-9.14,10.11-14.13,1.54-2.6,3-5.28,4.41-7.93,1.65-3,.88-4.34-2.58-4.54-3-.18-5,1.49-7,3.42-5.32,5.35-8.57,12.11-12.41,18.47a12.69,12.69,0,0,0-1.15,2.15c-.4,1.13-2.14,1.93-1.16,3.35A5,5,0,0,0,609,177.07Z" transform="translate(-118.97 -117.77)"/><path class="cls-6" d="M544.74,340.94c-7.14,6.92-10.85,16.09-16,24.33-.87,1.4,0,1.9.77,2.51,2.21,1.68,5.28,1.09,8.23-1.43,5-4.33,8.11-10.1,11.42-15.69,1-1.69,2-3.37,3.06-5.05,1.19-2.46,2.39-4.25,1.35-5.19a6,6,0,0,0-6.35-1.31A5.39,5.39,0,0,0,544.74,340.94Z" transform="translate(-118.97 -117.77)"/><path class="cls-6" d="M673.71,278.8c-2.45,0-4.89-.07-7.33,0-1.27.05-3-.63-3.43,1.39a4.41,4.41,0,0,0,1.58,4.69,19.07,19.07,0,0,0,9,3.41c7.51,1,15.09.72,22.64.82,1.92,0,2.44-.89,2.19-2.63-.48-3.16-2.52-4.8-5.38-5.73C686.72,278.74,680.22,278.73,673.71,278.8Z" transform="translate(-118.97 -117.77)"/><path class="cls-5" d="M600.64,354.91c2.45,7.29,6.94,13.52,10.55,20.21.94,1.74,4,.63,5-1.86,1.47-3.47.61-6.92-.71-10.14a111.09,111.09,0,0,0-10.59-19.46,3.41,3.41,0,0,0-4.7.17c-1.36,1.21-2.46.61-2,3.83A25.44,25.44,0,0,0,600.64,354.91Z" transform="translate(-118.97 -117.77)"/><path class="cls-5" d="M483.29,278.61c2.55,0,5.11.15,7.59-.7a6.07,6.07,0,0,0,3.69-3c1.36-2.62.64-4-2.3-4.25-9.94-.87-19.88-1.73-29.83-2.51-1.05-.08-3.07-.87-2.82,1.3.23,2-1.76,5.32,1.67,5.86C468.61,276.48,475.78,278.75,483.29,278.61Z" transform="translate(-118.97 -117.77)"/><path class="cls-5" d="M644.53,199.91c1,.11,1.17-.68,1.54-1.22l18.34-26.37c.84-1.19.76-1.82-.53-2.7-4.17-2.86-4.2-2.89-7.45,1-4.86,5.8-10,11.34-13.58,18.12a12.15,12.15,0,0,0-1.55,7.39C641.56,198.1,643,199.07,644.53,199.91Z" transform="translate(-118.97 -117.77)"/><path class="cls-5" d="M470.35,227.29H463c-1.49,0-3.06-.08-2.6,2s-1.77,5.16,2.17,5.51c10.18.89,20.38,1.54,30.56,2.44,3.06.26,3-1.51,2.53-3.41-.64-2.49-2.74-3.62-5-4.43C484.5,227.21,478.09,227.38,470.35,227.29Z" transform="translate(-118.97 -117.77)"/><path class="cls-6" d="M674.49,238c-2.21,0-4.43.13-6.62,0-2.75-.23-4.3.24-4.29,3.62,0,3,.64,4.12,3.91,4.28,9.27.45,18.51,1.39,27.77,2,1.26.08,3.1.94,3.76-.72.73-1.87-.17-3.65-1.66-5-2.55-2.27-5.77-3-9-3.4A80.41,80.41,0,0,0,674.49,238Z" transform="translate(-118.97 -117.77)"/><path class="cls-5" d="M632.92,324.15c-.37,2.92,1.68,5,2.77,7.31,3.53,7.66,7.24,15.24,10.8,22.88.67,1.42,1.39,2.37,3.1,1.93,3.13-1.95,4.42-4.5,3.35-8.23-1.14-3.92-2.2-8-4.86-11.26q-4.12-7-8.23-14.06c-1.05-1.75-2.6-1.14-3.83-.5A9.68,9.68,0,0,0,632.92,324.15Z" transform="translate(-118.97 -117.77)"/><path class="cls-6" d="M558.75,173.49c2.81-4.21.87-8.26-.63-12.19-2.44-6.36-6.07-12.13-9.59-17.94-1.2-1.77-2.24-2.14-4-1.75-2.68.57-3.54,2.41-2.55,5.52,2.17,6,5.33,11.51,7.89,17.3a19.55,19.55,0,0,1,.68,2c1.25,2.66,2.23,5.25,3.48,7.81C555,176.3,556.66,176,558.75,173.49Z" transform="translate(-118.97 -117.77)"/><path class="cls-6" d="M516.73,318.63a4.69,4.69,0,0,0-2.87-.09c-4.6,1.28-6.31,6.1-9.66,8.94-3.69,4.8-6.43,10.19-9.5,15.37-.57,1-2,2.08-.72,3.38a4.4,4.4,0,0,0,4.18,1.23,11,11,0,0,0,5.68-3.24A69.54,69.54,0,0,0,515.36,327a15.54,15.54,0,0,0,1.87-4A4.28,4.28,0,0,0,516.73,318.63Z" transform="translate(-118.97 -117.77)"/><path class="cls-6" d="M516.8,189.25c.44.94,1,1.83,1.36,2.8.88,2.59,2.09,2.66,4.56,1.53,3.26-1.5,3.06-3.07,1.68-5.77-2.26-4.41-4.15-9-6.2-13.53-.65-2.18-5.18-12.17-9.41-13-.36.12-2,.35-2.2.68a9.75,9.75,0,0,0-.32,5.11C506.37,167.64,513.52,182.38,516.8,189.25Z" transform="translate(-118.97 -117.77)"/></svg>